Exact Audio Copy V0.99 prebeta 5 from 4. May 2009

EAC ekstrakcijska log-datoteka od 4. Rujan 2010, 16:57

Divlje Jagode / Od Neba Do Neba

KoriÅ¡teni ureÄ‘aj  : TSSTcorpCD/DVDW TS-H552B   Adapter: 0  ID: 1

NaÄin Äitanja   :                           : Sigurno
Upotrijebi precizni tijek (accurate stream) : Da
Onesposobi audio cache                      : Ne
Iskoristi C2 pokazatelje                    : Ne

Kombinirani Äitaj/piÅ¡i ispravak pomaka                        : 0
ÄŒitaj prije Lead-In i Lead-Out                                : Ne
Ispuni nedostajuÄ‡e pomake uzoraka sa tiÅ¡inom                  : Da
ObriÅ¡i uvodne i prateÄ‡e (leading and trailing) blokove tiÅ¡ine : Ne
KoriÅ¡teno je Null uzorkovanje u CRC izraÄunu                  : Ne
koriÅ¡teno suÄelje                                             : 1267 Win32 suÄelje za  Win NT & 2000
Rukovanje razmakom (Gap)                                      : Nije otkriveno, pridodano prethodnom zapisu

KoriÅ¡teni izlazni format     : Unutarnje WAV rutine
Oblik uzorka (Sample format) : 44.100 Hz; 16 Bit; Stereo


TOC izvuÄenog CD-a

     Zapis |   Start  |  DuÅ¾ina  | PoÄetni sektor | ZavrÅ¡ni sektor 
    ---------------------------------------------------------------
        1  |  0:00.00 |  4:14.73 |          0     |      19122     
        2  |  4:14.73 |  4:28.49 |      19123     |      39271     
        3  |  8:43.47 |  3:41.59 |      39272     |      55905     
        4  | 12:25.31 |  3:13.14 |      55906     |      70394     
        5  | 15:38.45 |  5:01.65 |      70395     |      93034     
        6  | 20:40.35 |  4:33.55 |      93035     |     113564     
        7  | 25:14.15 |  4:11.50 |     113565     |     132439     
        8  | 29:25.65 |  4:15.00 |     132440     |     151564     
        9  | 33:40.65 |  4:13.33 |     151565     |     170572     
       10  | 37:54.23 |  3:52.37 |     170573     |     188009     
       11  | 41:46.60 |  3:12.67 |     188010     |     202476     


Zapis  1

     Ime datoteke D:\Divlje Jagode\2003 - Od Neba Do Neba\01. Divlje Jagode - Dobro DoÅ¡la Ljubavi.wav

     VrÅ¡ni nivo 96.6 %
     Kvaliteta zapisa 100.0 %
     Kopiraj CRC 39F6934A
     Kopiranje OK

Zapis  2

     Ime datoteke D:\Divlje Jagode\2003 - Od Neba Do Neba\02. Divlje Jagode - Motori 2003.wav

     VrÅ¡ni nivo 96.6 %
     Kvaliteta zapisa 99.9 %
     Kopiraj CRC 7563C3A8
     Kopiranje OK

Zapis  3

     Ime datoteke D:\Divlje Jagode\2003 - Od Neba Do Neba\03. Divlje Jagode - Marija.wav

     VrÅ¡ni nivo 96.6 %
     Kvaliteta zapisa 100.0 %
     Kopiraj CRC 94398A45
     Kopiranje OK

Zapis  4

     Ime datoteke D:\Divlje Jagode\2003 - Od Neba Do Neba\04. Divlje Jagode - PiÅ¡i Mi.wav

     VrÅ¡ni nivo 96.6 %
     Kvaliteta zapisa 100.0 %
     Kopiraj CRC 7706F6CF
     Kopiranje OK

Zapis  5

     Ime datoteke D:\Divlje Jagode\2003 - Od Neba Do Neba\05. Divlje Jagode - Od Neba Do Neba.wav

     VrÅ¡ni nivo 96.6 %
     Kvaliteta zapisa 99.9 %
     Kopiraj CRC D9575C5B
     Kopiranje OK

Zapis  6

     Ime datoteke D:\Divlje Jagode\2003 - Od Neba Do Neba\06. Divlje Jagode - Ne Krivi Me.wav

     VrÅ¡ni nivo 96.6 %
     Kvaliteta zapisa 100.0 %
     Kopiraj CRC 7F533F6A
     Kopiranje OK

Zapis  7

     Ime datoteke D:\Divlje Jagode\2003 - Od Neba Do Neba\07. Divlje Jagode - Kap Po Kap.wav

     VrÅ¡ni nivo 96.6 %
     Kvaliteta zapisa 100.0 %
     Kopiraj CRC 39E1EA76
     Kopiranje OK

Zapis  8

     Ime datoteke D:\Divlje Jagode\2003 - Od Neba Do Neba\08. Divlje Jagode - Ljubi Me I Ostani.wav

     VrÅ¡ni nivo 96.6 %
     Kvaliteta zapisa 100.0 %
     Kopiraj CRC 2998ACBF
     Kopiranje OK

Zapis  9

     Ime datoteke D:\Divlje Jagode\2003 - Od Neba Do Neba\09. Divlje Jagode - Oluja.wav

     VrÅ¡ni nivo 96.6 %
     Kvaliteta zapisa 100.0 %
     Kopiraj CRC F20C20A1
     Kopiranje OK

Zapis 10

     Ime datoteke D:\Divlje Jagode\2003 - Od Neba Do Neba\10. Divlje Jagode - Tv Kralj.wav

     VrÅ¡ni nivo 96.6 %
     Kvaliteta zapisa 100.0 %
     Kopiraj CRC F26147C7
     Kopiranje OK

Zapis 11

     Ime datoteke D:\Divlje Jagode\2003 - Od Neba Do Neba\11. Divlje Jagode - Ne Å½eliÅ¡ Kraj.wav

     VrÅ¡ni nivo 98.1 %
     Kvaliteta zapisa 100.0 %
     Kopiraj CRC E1D34C54
     Kopiranje OK

Nema pojave greÅ¡aka

Kraj statusnog izvjeÅ¡Ä‡a
